<svg width="18" height="10" viewBox="0 0 18 10" fill="none" xmlns="http://www.w3.org/2000/svg">
<path d="M17.7602 1.39743L9.57883 9.57883C9.50285 9.6549 9.41262 9.71525 9.3133 9.75642C9.21398 9.79759 9.10752 9.81878 9 9.81878C8.89248 9.81878 8.78602 9.79759 8.6867 9.75642C8.58738 9.71525 8.49715 9.6549 8.42116 9.57883L0.239761 1.39743C0.0862446 1.24391 0 1.0357 0 0.818595C0 0.60149 0.0862446 0.393277 0.239761 0.239761C0.393277 0.0862442 0.60149 0 0.818595 0C1.0357 0 1.24391 0.0862442 1.39743 0.239761L9 7.84335L16.6026 0.239761C16.6786 0.163747 16.7688 0.10345 16.8681 0.0623115C16.9675 0.0211732 17.0739 0 17.1814 0C17.2889 0 17.3954 0.0211732 17.4947 0.0623115C17.594 0.10345 17.6842 0.163747 17.7602 0.239761C17.8363 0.315774 17.8965 0.406016 17.9377 0.505332C17.9788 0.604649 18 0.711096 18 0.818595C18 0.926095 17.9788 1.03254 17.9377 1.13186C17.8965 1.23117 17.8363 1.32142 17.7602 1.39743Z" fill="black"/>
</svg>
