<svg width="31" height="24" viewBox="0 0 31 24" fill="none" xmlns="http://www.w3.org/2000/svg">
    <path d="M24 10.5C24 10.7967 23.912 11.0867 23.7472 11.3334C23.5824 11.58 23.3481 11.7723 23.074 11.8858C22.7999 11.9994 22.4983 12.0291 22.2074 11.9712C21.9164 11.9133 21.6491 11.7704 21.4393 11.5607C21.2296 11.3509 21.0867 11.0836 21.0288 10.7926C20.9709 10.5017 21.0007 10.2001 21.1142 9.92597C21.2277 9.65189 21.42 9.41762 21.6666 9.2528C21.9133 9.08797 22.2033 9 22.5 9C22.8978 9 23.2794 9.15804 23.5607 9.43934C23.842 9.72064 24 10.1022 24 10.5ZM19 4H14C13.7348 4 13.4804 4.10536 13.2929 4.29289C13.1054 4.48043 13 4.73478 13 5C13 5.26522 13.1054 5.51957 13.2929 5.70711C13.4804 5.89464 13.7348 6 14 6H19C19.2652 6 19.5196 5.89464 19.7071 5.70711C19.8946 5.51957 20 5.26522 20 5C20 4.73478 19.8946 4.48043 19.7071 4.29289C19.5196 4.10536 19.2652 4 19 4ZM31 10V14C31 14.7956 30.6839 15.5587 30.1213 16.1213C29.5587 16.6839 28.7956 17 28 17H27.705L25.6787 22.6725C25.54 23.061 25.2845 23.3972 24.9473 23.6348C24.6101 23.8725 24.2076 24 23.795 24H22.205C21.7924 24 21.3899 23.8725 21.0527 23.6348C20.7155 23.3972 20.46 23.061 20.3213 22.6725L20.0812 22H12.9187L12.6788 22.6725C12.54 23.061 12.2845 23.3972 11.9473 23.6348C11.6101 23.8725 11.2076 24 10.795 24H9.205C8.79243 24 8.38995 23.8725 8.05271 23.6348C7.71547 23.3972 7.45998 23.061 7.32125 22.6725L5.75 18.2775C4.25523 16.5857 3.31926 14.4737 3.07 12.23C2.74728 12.3995 2.47702 12.654 2.28844 12.9659C2.09985 13.2779 2.00011 13.6355 2 14C2 14.2652 1.89464 14.5196 1.70711 14.7071C1.51957 14.8946 1.26522 15 1 15C0.734784 15 0.48043 14.8946 0.292893 14.7071C0.105357 14.5196 0 14.2652 0 14C0.00152797 13.1082 0.301028 12.2425 0.850918 11.5404C1.40081 10.8383 2.16955 10.3401 3.035 10.125C3.2584 7.36916 4.51003 4.79812 6.54135 2.9224C8.57268 1.04669 11.2351 0.00351072 14 0H27C27.2652 0 27.5196 0.105357 27.7071 0.292893C27.8946 0.48043 28 0.734784 28 1C28 1.26522 27.8946 1.51957 27.7071 1.70711C27.5196 1.89464 27.2652 2 27 2H24.3263C25.9858 3.16437 27.291 4.76504 28.0975 6.625C28.1512 6.75 28.2037 6.875 28.2537 7C29.0046 7.06374 29.704 7.40773 30.2129 7.96358C30.7217 8.51943 31.0027 9.24642 31 10ZM29 10C29 9.73478 28.8946 9.48043 28.7071 9.29289C28.5196 9.10536 28.2652 9 28 9H27.5425C27.3295 9.00023 27.122 8.93245 26.9503 8.80654C26.7785 8.68063 26.6514 8.50317 26.5875 8.3C26.0146 6.47167 24.8723 4.87428 23.3275 3.74093C21.7826 2.60759 19.916 1.99761 18 2H14C12.2534 1.99991 10.5445 2.50804 9.08171 3.46243C7.61891 4.41682 6.46543 5.77622 5.76191 7.37487C5.05839 8.97352 4.83524 10.7423 5.11967 12.4656C5.4041 14.1889 6.18382 15.7922 7.36375 17.08C7.45398 17.1781 7.52368 17.2933 7.56875 17.4188L9.205 22H10.795L11.2725 20.6637C11.3418 20.4696 11.4695 20.3016 11.638 20.1828C11.8065 20.0639 12.0076 20.0001 12.2137 20H20.7862C20.9924 20.0001 21.1935 20.0639 21.362 20.1828C21.5305 20.3016 21.6582 20.4696 21.7275 20.6637L22.205 22H23.795L26.0588 15.6637C26.1281 15.4696 26.2557 15.3016 26.4242 15.1828C26.5927 15.0639 26.7938 15.0001 27 15H28C28.2652 15 28.5196 14.8946 28.7071 14.7071C28.8946 14.5196 29 14.2652 29 14V10Z" fill="#F77676"/>
</svg>
