<svg width="512" height="512" viewBox="0 0 512 512" fill="none" xmlns="http://www.w3.org/2000/svg">
    <g clip-path="url(#clip0_4928_10439)">
        <path d="M256 512C397.385 512 512 397.385 512 256C512 114.615 397.385 0 256 0C114.615 0 0 114.615 0 256C0 397.385 114.615 512 256 512Z" fill="#F77676"/>
        <path d="M344.123 213.252C343.699 212.194 343.255 211.136 342.8 210.077C335.973 194.334 324.925 180.785 310.878 170.929H333.542C335.787 170.929 337.94 170.037 339.527 168.45C341.114 166.862 342.006 164.709 342.006 162.465C342.006 160.22 341.114 158.067 339.527 156.479C337.94 154.892 335.787 154 333.542 154H223.503C200.1 154.03 177.564 162.86 160.369 178.737C143.175 194.614 132.581 216.376 130.69 239.703C123.378 241.521 116.882 245.725 112.229 251.651C107.576 257.576 105.032 264.884 105 272.418C105 274.664 105.892 276.817 107.479 278.404C109.067 279.991 111.22 280.883 113.465 280.883C115.709 280.883 117.862 279.991 119.45 278.404C121.037 276.817 121.929 274.664 121.929 272.418C121.931 269.332 122.777 266.305 124.375 263.664C125.973 261.023 128.263 258.87 130.997 257.436C133.104 276.428 141.022 294.305 153.671 308.625L166.96 345.827C168.135 349.118 170.299 351.964 173.156 353.976C176.013 355.988 179.422 357.066 182.916 357.064H196.374C199.867 357.064 203.273 355.984 206.128 353.973C208.983 351.962 211.145 349.115 212.319 345.827L214.351 340.135H274.978L277.01 345.827C278.184 349.115 280.347 351.962 283.201 353.973C286.056 355.984 289.462 357.064 292.955 357.064H306.413C309.906 357.064 313.312 355.984 316.166 353.973C319.021 351.962 321.184 349.115 322.358 345.827L339.509 297.812H342.006C348.741 297.812 355.2 295.137 359.963 290.375C364.724 285.613 367.4 279.153 367.4 272.418V238.561C367.401 232.191 365.009 226.055 360.697 221.367C356.386 216.679 350.47 213.782 344.123 213.252ZM265.826 196.238H223.503C221.258 196.238 219.105 195.346 217.518 193.759C215.931 192.171 215.039 190.018 215.039 187.773C215.039 185.528 215.931 183.375 217.518 181.788C219.105 180.201 221.258 179.309 223.503 179.309H265.826C268.071 179.309 270.224 180.201 271.811 181.788C273.398 183.375 274.29 185.528 274.29 187.773C274.29 190.018 273.398 192.171 271.811 193.759C270.224 195.346 268.071 196.238 265.826 196.238ZM295.452 255.49C292.941 255.49 290.486 254.745 288.397 253.35C286.31 251.955 284.683 249.972 283.721 247.652C282.76 245.332 282.509 242.779 282.999 240.316C283.489 237.853 284.697 235.59 286.474 233.815C288.249 232.039 290.511 230.83 292.975 230.34C295.438 229.85 297.99 230.102 300.31 231.062C302.631 232.023 304.613 233.651 306.009 235.739C307.403 237.827 308.148 240.282 308.148 242.793C308.148 246.16 306.811 249.39 304.429 251.771C302.049 254.152 298.819 255.49 295.452 255.49Z" fill="white"/>
    </g>
    <defs>
        <clipPath id="clip0_4928_10439">
            <rect width="512" height="512" fill="white"/>
        </clipPath>
    </defs>
</svg>
