<svg width="512" height="512" viewBox="0 0 512 512" fill="none" xmlns="http://www.w3.org/2000/svg">
    <rect width="512" height="512" rx="256" fill="#F77676"/>
    <path d="M338.806 241.375C338.806 244.268 337.949 247.095 336.344 249.5C334.738 251.905 332.456 253.78 329.786 254.887C327.115 255.994 324.177 256.283 321.343 255.719C318.508 255.155 315.904 253.762 313.861 251.716C311.817 249.671 310.425 247.065 309.861 244.228C309.297 241.391 309.587 238.451 310.693 235.778C311.799 233.106 313.672 230.822 316.075 229.215C318.478 227.608 321.303 226.75 324.193 226.75C328.069 226.75 331.786 228.291 334.526 231.034C337.267 233.776 338.806 237.496 338.806 241.375ZM290.097 178H241.387C238.803 178 236.325 179.027 234.498 180.856C232.671 182.684 231.645 185.164 231.645 187.75C231.645 190.336 232.671 192.816 234.498 194.644C236.325 196.473 238.803 197.5 241.387 197.5H290.097C292.68 197.5 295.158 196.473 296.985 194.644C298.812 192.816 299.839 190.336 299.839 187.75C299.839 185.164 298.812 182.684 296.985 180.856C295.158 179.027 292.68 178 290.097 178ZM407 236.5V275.5C407 283.258 403.921 290.697 398.44 296.183C392.959 301.668 385.525 304.75 377.774 304.75H374.9L355.161 360.057C353.809 363.845 351.32 367.123 348.035 369.44C344.749 371.757 340.828 373 336.809 373H321.32C317.3 373 313.379 371.757 310.094 369.44C306.809 367.123 304.32 363.845 302.968 360.057L300.63 353.5H230.854L228.515 360.057C227.164 363.845 224.675 367.123 221.39 369.44C218.104 371.757 214.183 373 210.164 373H194.674C190.655 373 186.734 371.757 183.449 369.44C180.164 367.123 177.675 363.845 176.323 360.057L161.016 317.206C146.454 300.711 137.336 280.119 134.908 258.242C131.764 259.895 129.131 262.376 127.294 265.418C125.457 268.46 124.485 271.946 124.484 275.5C124.484 278.086 123.457 280.566 121.631 282.394C119.804 284.223 117.326 285.25 114.742 285.25C112.158 285.25 109.68 284.223 107.853 282.394C106.026 280.566 105 278.086 105 275.5C105.015 266.805 107.933 258.364 113.29 251.519C118.647 244.674 126.136 239.816 134.567 237.719C136.743 210.849 148.936 185.782 168.725 167.493C188.514 149.205 214.452 139.034 241.387 139H368.032C370.616 139 373.094 140.027 374.921 141.856C376.748 143.684 377.774 146.164 377.774 148.75C377.774 151.336 376.748 153.816 374.921 155.644C373.094 157.473 370.616 158.5 368.032 158.5H341.985C358.152 169.853 370.867 185.459 378.724 203.594C379.247 204.812 379.759 206.031 380.246 207.25C387.561 207.871 394.374 211.225 399.332 216.645C404.289 222.064 407.026 229.153 407 236.5ZM387.516 236.5C387.516 233.914 386.49 231.434 384.663 229.606C382.836 227.777 380.358 226.75 377.774 226.75H373.317C371.242 226.752 369.221 226.091 367.548 224.864C365.874 223.636 364.636 221.906 364.014 219.925C358.432 202.099 347.304 186.524 332.255 175.474C317.205 164.424 299.02 158.477 280.355 158.5H241.387C224.372 158.499 207.724 163.453 193.473 172.759C179.223 182.064 167.986 195.318 161.132 210.905C154.278 226.492 152.105 243.738 154.875 260.54C157.646 277.342 165.242 292.974 176.737 305.53C177.616 306.487 178.295 307.61 178.734 308.833L194.674 353.5H210.164L214.816 340.472C215.491 338.578 216.735 336.94 218.376 335.782C220.018 334.623 221.977 334.001 223.985 334H307.498C309.507 334.001 311.466 334.623 313.107 335.782C314.749 336.94 315.992 338.578 316.668 340.472L321.32 353.5H336.809L358.862 291.722C359.538 289.828 360.781 288.19 362.423 287.032C364.064 285.873 366.024 285.251 368.032 285.25H377.774C380.358 285.25 382.836 284.223 384.663 282.394C386.49 280.566 387.516 278.086 387.516 275.5V236.5Z" fill="white"/>
</svg>
