<?xml version="1.0" encoding="UTF-8"?>
<svg width="512" height="512" viewBox="0 0 512 512" fill="none" xmlns="http://www.w3.org/2000/svg">
    <!-- Safe zone for maskable icons is 40% padding -->
    <circle cx="256" cy="256" r="256" fill="#F77676"/>
    <g transform="translate(156, 160) scale(0.8)">
        <path d="M226 56.0801C225.6 55.0801 225.18 54.0801 224.75 53.0801C218.298 38.2004 207.856 25.395 194.58 16.0801H216C218.122 16.0801 220.157 15.2372 221.657 13.7369C223.157 12.2366 224 10.2018 224 8.08008C224 5.95835 223.157 3.92351 221.657 2.42322C220.157 0.922931 218.122 0.0800781 216 0.0800781H112C89.881 0.108164 68.5814 8.45363 52.3308 23.4593C36.0802 38.465 26.0672 59.0333 24.28 81.0801C17.3696 82.7979 11.2296 86.7715 6.83188 92.3719C2.43417 97.9722 0.0300152 104.879 0 112C0 114.122 0.842855 116.157 2.34315 117.657C3.84344 119.157 5.87827 120 8 120C10.1217 120 12.1566 119.157 13.6569 117.657C15.1571 116.157 16 114.122 16 112C16.0019 109.083 16.8013 106.222 18.3118 103.726C19.8223 101.23 21.9864 99.1948 24.57 97.8401C26.5613 115.789 34.0454 132.685 46 146.22L58.56 181.38C59.6704 184.49 61.7158 187.18 64.4157 189.082C67.1157 190.983 70.3378 192.002 73.64 192H86.36C89.6605 192 92.8804 190.98 95.5783 189.079C98.2763 187.178 100.32 184.488 101.43 181.38L103.35 176H160.65L162.57 181.38C163.68 184.488 165.724 187.178 168.422 189.079C171.12 190.98 174.339 192 177.64 192H190.36C193.661 192 196.88 190.98 199.578 189.079C202.276 187.178 204.32 184.488 205.43 181.38L221.64 136H224C230.365 136 236.47 133.472 240.971 128.971C245.471 124.47 248 118.365 248 112V80.0001C248.001 73.9805 245.74 68.1804 241.665 63.7498C237.59 59.3192 231.999 56.5817 226 56.0801ZM152 40.0001H112C109.878 40.0001 107.843 39.1572 106.343 37.6569C104.843 36.1566 104 34.1218 104 32.0001C104 29.8783 104.843 27.8435 106.343 26.3432C107.843 24.8429 109.878 24.0001 112 24.0001H152C154.122 24.0001 156.157 24.8429 157.657 26.3432C159.157 27.8435 160 29.8783 160 32.0001C160 34.1218 159.157 36.1566 157.657 37.6569C156.157 39.1572 154.122 40.0001 152 40.0001ZM180 96.0001C177.627 96.0001 175.307 95.2963 173.333 93.9777C171.36 92.6591 169.822 90.785 168.913 88.5923C168.005 86.3996 167.768 83.9868 168.231 81.659C168.694 79.3312 169.836 77.193 171.515 75.5148C173.193 73.8366 175.331 72.6937 177.659 72.2307C179.987 71.7676 182.399 72.0053 184.592 72.9135C186.785 73.8218 188.659 75.3598 189.978 77.3332C191.296 79.3066 192 81.6267 192 84.0001C192 87.1827 190.736 90.2349 188.485 92.4854C186.235 94.7358 183.183 96.0001 180 96.0001Z" fill="#FFFFFF"/>
    </g>
</svg>