<svg width="512" height="512" viewBox="0 0 512 512" fill="none" xmlns="http://www.w3.org/2000/svg">
    <rect width="512" height="512" rx="256" fill="#F77676"/>
    <path d="M380.21 207.339C379.723 206.121 379.211 204.904 378.688 203.686C370.831 185.566 358.115 169.973 341.948 158.629H368.032C370.616 158.629 373.094 157.603 374.921 155.776C376.748 153.949 377.774 151.471 377.774 148.887C377.774 146.304 376.748 143.826 374.921 141.999C373.094 140.172 370.616 139.146 368.032 139.146H241.387C214.452 139.18 188.514 149.342 168.725 167.615C148.936 185.888 136.743 210.935 134.567 237.783C126.152 239.874 118.675 244.713 113.319 251.533C107.964 258.353 105.037 266.764 105 275.435C105 278.019 106.026 280.497 107.853 282.324C109.68 284.15 112.158 285.177 114.742 285.177C117.326 285.177 119.804 284.15 121.631 282.324C123.457 280.497 124.484 278.019 124.484 275.435C124.486 271.883 125.46 268.399 127.299 265.359C129.138 262.32 131.774 259.842 134.92 258.192C137.345 280.049 146.459 300.624 161.016 317.106L176.311 359.922C177.663 363.709 180.154 366.985 183.442 369.301C186.73 371.616 190.653 372.857 194.675 372.854H210.164C214.183 372.854 218.104 371.612 221.39 369.297C224.675 366.982 227.164 363.707 228.516 359.922L230.854 353.371H300.63L302.968 359.922C304.32 363.707 306.809 366.982 310.095 369.297C313.38 371.612 317.3 372.854 321.32 372.854H336.809C340.829 372.854 344.749 371.612 348.035 369.297C351.32 366.982 353.809 363.707 355.161 359.922L374.9 304.661H377.774C385.525 304.661 392.959 301.582 398.44 296.101C403.92 290.62 407 283.186 407 275.435V236.467C407.001 229.137 404.248 222.074 399.286 216.679C394.323 211.283 387.515 207.95 380.21 207.339ZM290.097 187.758H241.387C238.803 187.758 236.325 186.731 234.498 184.904C232.672 183.077 231.645 180.6 231.645 178.016C231.645 175.432 232.672 172.954 234.498 171.127C236.325 169.3 238.803 168.274 241.387 168.274H290.097C292.681 168.274 295.159 169.3 296.986 171.127C298.812 172.954 299.839 175.432 299.839 178.016C299.839 180.6 298.812 183.077 296.986 184.904C295.159 186.731 292.681 187.758 290.097 187.758ZM324.194 255.951C321.304 255.951 318.479 255.094 316.075 253.489C313.672 251.883 311.799 249.601 310.692 246.931C309.587 244.26 309.298 241.322 309.862 238.488C310.426 235.653 311.816 233.049 313.861 231.006C315.904 228.962 318.508 227.57 321.343 227.006C324.178 226.442 327.115 226.732 329.785 227.838C332.456 228.944 334.738 230.817 336.344 233.22C337.949 235.623 338.806 238.448 338.806 241.338C338.806 245.214 337.267 248.931 334.526 251.671C331.786 254.412 328.07 255.951 324.194 255.951Z" fill="white"/>
</svg>
