<svg width="24" height="24" viewBox="0 0 24 24" fill="none" xmlns="http://www.w3.org/2000/svg">
    <path d="M9.99921 23C9.99921 23.2652 9.89385 23.5196 9.70631 23.7071C9.51878 23.8946 9.26442 24 8.99921 24H0.999207C0.73399 24 0.479636 23.8946 0.2921 23.7071C0.104564 23.5196 -0.000793457 23.2652 -0.000793457 23V1C-0.000793457 0.734784 0.104564 0.48043 0.2921 0.292893C0.479636 0.105357 0.73399 0 0.999207 0H8.99921C9.26442 0 9.51878 0.105357 9.70631 0.292893C9.89385 0.48043 9.99921 0.734784 9.99921 1C9.99921 1.26522 9.89385 1.51957 9.70631 1.70711C9.51878 1.89464 9.26442 2 8.99921 2H1.99921V22H8.99921C9.26442 22 9.51878 22.1054 9.70631 22.2929C9.89385 22.4804 9.99921 22.7348 9.99921 23ZM23.7067 11.2925L18.7067 6.2925C18.5191 6.10486 18.2646 5.99944 17.9992 5.99944C17.7338 5.99944 17.4793 6.10486 17.2917 6.2925C17.1041 6.48014 16.9986 6.73464 16.9986 7C16.9986 7.26536 17.1041 7.51986 17.2917 7.7075L20.5855 11H8.99921C8.73399 11 8.47964 11.1054 8.2921 11.2929C8.10456 11.4804 7.99921 11.7348 7.99921 12C7.99921 12.2652 8.10456 12.5196 8.2921 12.7071C8.47964 12.8946 8.73399 13 8.99921 13H20.5855L17.2917 16.2925C17.1041 16.4801 16.9986 16.7346 16.9986 17C16.9986 17.2654 17.1041 17.5199 17.2917 17.7075C17.4793 17.8951 17.7338 18.0006 17.9992 18.0006C18.2646 18.0006 18.5191 17.8951 18.7067 17.7075L23.7067 12.7075C23.7997 12.6146 23.8734 12.5043 23.9238 12.3829C23.9741 12.2615 24 12.1314 24 12C24 11.8686 23.9741 11.7385 23.9238 11.6171C23.8734 11.4957 23.7997 11.3854 23.7067 11.2925Z" fill="white"/>
</svg>
